<svg xmlns="http://www.w3.org/2000/svg" viewBox="0 0 512 512">
  <!-- 배경 -->
  <rect width="512" height="512" fill="#BDE8D9"/>

  <!-- 바닥 그림자 -->
  <ellipse cx="265" cy="430" rx="195" ry="24" fill="#9ED4C2"/>

  <!-- 종이 -->
  <g transform="rotate(-4 430 395)">
    <rect x="350" y="355" width="135" height="95" rx="10" fill="#FFFFFF"/>
    <line x1="370" y1="385" x2="455" y2="385" stroke="#B9C4CE" stroke-width="7" stroke-linecap="round"/>
    <line x1="370" y1="408" x2="440" y2="408" stroke="#B9C4CE" stroke-width="7" stroke-linecap="round"/>
    <path d="M370 430 q12 -10 24 0 q12 10 24 0" stroke="#6FA8DC" stroke-width="7" fill="none" stroke-linecap="round"/>
  </g>

  <!-- 꼬리 -->
  <path d="M70 350 q-25 -5 -18 -28 q20 8 32 16 z" fill="#7FC98F"/>

  <!-- 뒷다리 -->
  <ellipse cx="135" cy="405" rx="34" ry="24" fill="#8FD9A0"/>

  <!-- 등껍질 -->
  <path d="M85 360 a125 105 0 0 1 250 0 z" fill="#6FBF8A"/>
  <path d="M85 360 a125 105 0 0 1 250 0 l0 0 a18 18 0 0 1 0 36 l-250 0 a18 18 0 0 1 0 -36 z" fill="#5FAE7B" opacity="0.0"/>
  <!-- 등껍질 테두리띠 -->
  <rect x="72" y="352" width="276" height="34" rx="17" fill="#5FAE7B"/>
  <!-- 등껍질 무늬 -->
  <circle cx="210" cy="290" r="34" fill="none" stroke="#5FAE7B" stroke-width="9"/>
  <circle cx="138" cy="325" r="22" fill="none" stroke="#5FAE7B" stroke-width="8"/>
  <circle cx="282" cy="325" r="22" fill="none" stroke="#5FAE7B" stroke-width="8"/>

  <!-- 목 -->
  <path d="M310 320 q20 -60 65 -75 l30 45 q-30 40 -60 50 z" fill="#8FD9A0"/>

  <!-- 머리 -->
  <circle cx="385" cy="245" r="62" fill="#8FD9A0"/>
  <!-- 눈 -->
  <circle cx="402" cy="232" r="11" fill="#2E3A33"/>
  <circle cx="406" cy="228" r="4" fill="#FFFFFF"/>
  <!-- 입 -->
  <path d="M408 264 q10 8 22 2" stroke="#2E3A33" stroke-width="6" fill="none" stroke-linecap="round"/>
  <!-- 볼터치 -->
  <ellipse cx="427" cy="252" rx="11" ry="8" fill="#F7A8A0" opacity="0.75"/>

  <!-- 앞다리(팔) -->
  <ellipse cx="360" cy="350" rx="38" ry="26" transform="rotate(38 360 350)" fill="#8FD9A0"/>

  <!-- 연필 -->
  <g transform="rotate(48 420 392)">
    <rect x="402" y="285" width="34" height="92" rx="6" fill="#F5B544"/>
    <rect x="402" y="272" width="34" height="20" rx="8" fill="#F08A8A"/>
    <path d="M402 377 l17 30 l17 -30 z" fill="#FBE3BC"/>
    <path d="M413 396 l6 11 l6 -11 z" fill="#4A4A4A"/>
  </g>
  <!-- 연필 잡은 손끝 -->
  <circle cx="392" cy="362" r="16" fill="#7FC98F"/>

  <!-- 반짝이 -->
  <path d="M95 130 l7 18 18 7 -18 7 -7 18 -7 -18 -18 -7 18 -7 z" fill="#FFFFFF" opacity="0.85"/>
  <path d="M440 105 l5 13 13 5 -13 5 -5 13 -5 -13 -13 -5 13 -5 z" fill="#FFFFFF" opacity="0.7"/>
</svg>
